<svg width="43" height="45" viewBox="0 0 43 45" fill="none" xmlns="http://www.w3.org/2000/svg">
<g clip-path="url(#clip0_1_52)">
<path d="M41.9664 41.6287L35.6121 34.857L38.8894 31.3594C39.0715 31.1651 39.1352 30.893 39.0624 30.6307C38.9895 30.3781 38.7893 30.1838 38.5435 30.1255L35.4756 29.4746C35.4665 29.4746 35.4574 29.4746 35.4392 29.4649C33.4819 29.154 31.5519 29.7272 30.0499 31.0388L22.0387 22.4891L41.9482 1.24121C42.2122 0.959456 42.2122 0.49311 41.9482 0.211359C41.6842 -0.0703919 41.2472 -0.0703919 40.9832 0.211359L21.0738 21.469L1.16432 0.221074C0.900317 -0.0606764 0.463347 -0.0606764 0.199345 0.221074C-0.0646579 0.502825 -0.0646579 0.969171 0.199345 1.25092L20.1088 22.4988L12.0977 31.0485C10.5956 29.7369 8.67474 29.1637 6.70838 29.4746C6.69927 29.4746 6.69017 29.4746 6.67196 29.4843L3.60407 30.1352C3.35827 30.1838 3.158 30.3781 3.08517 30.6404C3.01234 30.893 3.07606 31.1748 3.25813 31.3691L6.53541 34.8667L0.199345 41.6287C-0.0646579 41.9105 -0.0646579 42.3768 0.199345 42.6586L2.19302 44.7863C2.32957 44.932 2.50254 45 2.67551 45C2.84848 45 3.02144 44.932 3.158 44.7863L9.49406 38.0243L12.7713 41.5218C12.8988 41.6579 13.0718 41.7356 13.2538 41.7356C13.3175 41.7356 13.3904 41.7259 13.4541 41.7064C13.6908 41.6287 13.8729 41.415 13.9275 41.1527L14.5374 37.8785C14.5374 37.8688 14.5374 37.8591 14.5465 37.8397C14.8378 35.7508 14.3007 33.6911 13.0718 32.0881L21.0829 23.5384L29.094 32.0881C27.865 33.6911 27.3279 35.7411 27.6192 37.8397C27.6192 37.8494 27.6192 37.8591 27.6283 37.8785L28.2383 41.1527C28.2838 41.415 28.4658 41.6287 28.7116 41.7064C28.7754 41.7259 28.8391 41.7356 28.9119 41.7356C29.094 41.7356 29.267 41.6579 29.3944 41.5218L32.6717 38.0243L39.0077 44.7863C39.1443 44.932 39.3173 45 39.4902 45C39.6632 45 39.8362 44.932 39.9727 44.7863L41.9664 42.6586C42.2304 42.3768 42.2304 41.9105 41.9664 41.6287ZM2.67551 43.2318L1.64681 42.1339L7.50038 35.8868L8.52909 36.9847L2.67551 43.2318ZM13.1901 37.5968L12.826 39.5204L5.12436 31.3011L6.92686 30.9125C8.67474 30.6404 10.3953 31.2428 11.6334 32.5738C12.8806 33.8951 13.445 35.7217 13.1901 37.5968ZM29.3125 39.5107L28.9483 37.5871C28.6934 35.7217 29.2578 33.8854 30.505 32.5641C31.7431 31.2428 33.4637 30.6307 35.2116 30.9028L37.0141 31.2914L29.3125 39.5107ZM39.472 43.2318L33.6184 36.9847L34.6471 35.8868L40.5007 42.1339L39.472 43.2318Z" fill="black"/>
</g>
<defs>
<clipPath id="clip0_1_52">
<rect width="42.1654" height="45" fill="white"/>
</clipPath>
</defs>
</svg>
