<svg width="72" height="72" viewBox="0 0 72 72" fill="none" xmlns="http://www.w3.org/2000/svg">
<path d="M47.4 47.4C47.76 47.04 47.76 46.44 47.4 46.08C47.04 45.72 46.44 45.72 46.08 46.08C45 47.16 44.16 49.2 43.92 51.24C43.68 53.52 44.28 55.56 45.48 56.76C45.6 56.88 45.84 57 46.08 57C46.32 57 46.56 56.88 46.68 56.76C47.04 56.4 47.04 55.8 46.68 55.44C45.84 54.6 45.48 53.16 45.6 51.36C45.96 49.8 46.68 48.24 47.4 47.4ZM57.6 51.36L58.92 50.04C59.28 49.68 59.28 49.08 58.92 48.72C58.56 48.36 57.96 48.36 57.6 48.72L52.08 54.24L46.68 59.64C44.52 58.2 42.96 55.68 42.48 52.8C42 50.16 42.48 47.76 43.92 45.96C44.16 45.6 44.16 45.12 43.8 44.76L37.2 38.16L39.48 35.88C40.2 36.6 41.28 37.68 42.48 38.88C46.68 43.08 46.68 43.08 47.28 42.6C49.08 41.16 51.48 40.68 54.12 41.16C56.88 41.64 59.52 43.32 60.96 45.36L59.76 46.56C59.4 46.92 59.4 47.52 59.76 47.88C59.88 48 60.12 48.12 60.36 48.12C60.6 48.12 60.84 48 60.96 47.88L62.76 46.08C63 45.84 63.12 45.36 62.88 45C61.2 42.12 58.08 39.96 54.48 39.36C51.6 38.88 48.96 39.36 46.8 40.68C45.72 39.6 42.96 36.84 40.8 34.56L65.64 9.84002C65.76 9.72002 65.88 9.48002 65.88 9.24002C65.88 9.00002 65.76 8.76002 65.64 8.64002L62.04 5.04002C61.92 4.92002 61.68 4.80002 61.44 4.80002C61.2 4.80002 60.84 4.80002 60.72 5.04002L51 14.76C50.64 15.12 50.64 15.72 51 16.08C51.36 16.44 51.96 16.44 52.32 16.08L61.32 7.08002L63.72 9.48002L35.4 37.56L28.2 44.76C27.84 45.12 27.84 45.6 28.08 45.96C29.52 47.76 30 50.16 29.52 52.8C29.04 55.56 27.36 58.2 25.32 59.64L24.12 58.44C23.76 58.08 23.16 58.08 22.8 58.44C22.44 58.8 22.44 59.4 22.8 59.76L24.6 61.56C24.72 61.68 24.96 61.8 25.2 61.8C25.32 61.8 25.56 61.8 25.68 61.68C28.56 60 30.72 56.88 31.32 53.28C31.8 50.4 31.32 47.76 30 45.72L36.12 39.6L42.24 45.72C40.8 47.76 40.32 50.52 40.92 53.28C41.64 56.88 43.8 60.12 46.56 61.68C46.68 61.8 46.8 61.8 47.04 61.8C47.28 61.8 47.52 61.68 47.64 61.56L52.92 56.28L54.84 58.2L57.6 60.96L60.96 64.32C61.08 64.44 61.32 64.56 61.56 64.56C61.8 64.56 62.04 64.44 62.16 64.32L65.76 60.72C66.12 60.36 66.12 59.76 65.76 59.4L57.6 51.36ZM54 54.96L56.4 52.56L57.6 53.76L55.2 56.16L54 54.96ZM56.52 57.48L58.92 55.08L60.48 56.64L58.08 59.04L56.52 57.48ZM61.32 62.28L59.28 60.24L61.68 57.84L63.72 59.88L61.32 62.28ZM23.52 56.88C23.64 57 23.88 57.12 24.12 57.12C24.36 57.12 24.6 57 24.72 56.88C27.12 54.48 27.84 48.84 25.32 46.2C24.96 45.84 24.36 45.84 24 46.2C23.64 46.56 23.64 47.16 24 47.52C25.8 49.32 25.2 53.88 23.4 55.56C23.16 56.04 23.16 56.52 23.52 56.88ZM19.92 54.24L16.32 50.64L10.92 45.24C12.36 43.08 14.88 41.52 17.76 41.04C20.4 40.56 22.8 41.04 24.6 42.48C24.96 42.72 25.44 42.72 25.8 42.36L33 35.16L49.92 18.24C50.28 17.88 50.28 17.28 49.92 16.92C49.56 16.56 48.96 16.56 48.6 16.92L36 29.76L11.28 5.04002C10.92 4.68002 10.32 4.68002 9.96 5.04002L6.36 8.64002C6 9.00002 6 9.48002 6.36 9.84002L16.08 19.56C16.44 19.92 17.04 19.92 17.4 19.56C17.76 19.2 17.76 18.6 17.4 18.24L8.28 9.24002L10.68 6.84002L34.8 30.96L32.4 33.36L18.84 19.8C18.48 19.44 17.88 19.44 17.52 19.8C17.16 20.16 17.16 20.76 17.52 21.12L31.08 34.68L24.96 40.8C22.92 39.36 20.16 38.88 17.4 39.48C13.8 40.2 10.56 42.36 9 45.12C8.76 45.48 8.88 45.96 9.12 46.2L14.4 51.48L9.72 56.16L6.36 59.52C6 59.88 6 60.48 6.36 60.84L9.96 64.44C10.08 64.56 10.32 64.68 10.56 64.68C10.8 64.68 11.04 64.56 11.16 64.44L14.52 61.08L17.28 58.32L19.2 56.4L20.52 57.72C20.64 57.84 20.88 57.96 21.12 57.96C21.36 57.96 21.6 57.84 21.72 57.72C22.08 57.36 22.08 56.76 21.72 56.4L19.92 54.24ZM10.68 62.28L8.28 59.88L10.32 57.84L12.72 60.24L10.68 62.28ZM13.92 59.04L11.52 56.64L13.08 55.08L15.48 57.48L13.92 59.04ZM16.8 56.16L14.4 53.76L15.6 52.56L18 54.96L16.8 56.16Z" fill="#D5A664"/>
</svg>
