<svg width="72" height="72" viewBox="0 0 72 72" fill="none" xmlns="http://www.w3.org/2000/svg">
<path d="M65.88 44.52C64.68 44.16 63.24 43.68 61.92 43.44L60.84 43.2C59.28 42.84 57.72 42 57.48 41.64V41.52C57.48 41.52 57.48 41.52 57.6 41.52C61.08 41.52 64.44 39.96 65.76 38.28C66.48 37.32 66.48 36.6 66.24 36.24L66.12 36C66 35.64 65.88 35.4 65.52 33.96C65.04 32.4 64.32 26.4 64.32 19.56C64.32 16.44 62.52 13.32 59.28 10.8C54.84 7.31999 49.92 6.83999 45.36 9.11999C42.12 10.8 39.72 13.68 38.64 16.92C38.16 18.36 37.92 20.04 37.92 21.72V27.6L35.28 29.16L28.92 25.32C29.04 24.6 29.16 23.76 29.28 23.28C29.88 23.28 30.6 23.16 30.96 22.8C31.2 22.68 31.56 22.32 31.68 20.52C31.68 18.48 31.2 18 31.08 17.88C30.72 17.64 30.36 17.52 29.88 17.4V12.12C29.88 9.83999 28.92 7.91999 27.24 6.47999C24.12 3.83999 18.84 3.23999 15.36 3.71999C10.92 4.43999 6.24 7.07999 6.24 12.12V17.4C5.88 17.52 5.4 17.64 5.04 17.88C4.92 18 4.32 18.48 4.44 20.52C4.44 22.32 4.92 22.68 5.16 22.8C5.64 23.16 6.24 23.28 6.84 23.28C6.96 24.48 7.2 26.4 7.92 27.6C8.52 28.56 9.84 30 11.76 31.32V34.44C10.8 34.68 9.12 35.16 7.44 35.64C7.2 35.64 7.08 35.64 6.84 35.64C6.72 35.64 6.6 35.76 6.6 35.88C5.16 36.36 3.84 36.72 3.36 36.84C1.56 37.44 0.720001 39 0.720001 41.4V52.2C0.720001 52.32 0.720001 52.56 0.840001 52.68C0.840001 52.8 1.08 53.16 1.68 53.4V65.52C1.68 66 2.04 66.48 2.64 66.48C3.24 66.48 3.6 66.12 3.6 65.52V53.64H7.2V65.52C7.2 66 7.56 66.48 8.16 66.48C8.76 66.48 9.12 66.12 9.12 65.52V48.36C9.12 43.56 5.64 41.88 5.52 41.88C5.04 41.64 4.56 41.88 4.32 42.36C4.08 42.84 4.32 43.32 4.8 43.56C4.8 43.56 7.32 44.76 7.32 48.48V52.08H2.4V41.64C2.4 39.48 3.12 39 3.84 38.76C4.32 38.64 5.4 38.28 6.84 37.92C9.72 43.68 13.32 46.44 18.12 46.44C20.28 46.44 22.2 45.72 23.76 44.4C23.88 45.36 24.72 46.08 25.8 46.08H26.4C26.4 46.2 26.4 46.32 26.4 46.44C26.4 47.4 26.4 49.56 27.48 51.12C28.44 52.56 29.52 53.64 30.84 54.24V56.04C30.84 56.04 30.72 56.16 30.12 56.28L29.76 56.4C29.4 56.52 28.92 56.52 28.44 56.76C27.72 57 27 57.24 26.4 57.6C25.2 58.32 24 59.4 24 61.68V65.88C24 66.36 24.36 66.84 24.96 66.84C25.56 66.84 25.92 66.48 25.92 65.88V61.68C25.92 60.48 26.4 59.88 27.6 59.16C27.84 58.92 28.2 58.8 28.56 58.68C29.28 60 31.32 62.4 35.52 62.4C39.6 62.4 41.88 60 42.72 58.68C43.08 58.8 43.32 58.92 43.56 59.16C44.64 59.88 45.24 60.48 45.24 61.68V65.88C45.24 66.36 45.6 66.84 46.2 66.84C46.8 66.84 46.8 66 46.8 65.52V61.32C46.8 59.04 45.48 58.08 44.4 57.24C43.8 56.88 43.2 56.64 42.6 56.4C42.36 56.4 42.24 56.4 42.12 56.4C41.64 56.28 41.28 56.16 40.92 56.16L40.56 56.04C40.08 55.92 39.96 55.8 39.96 55.8V53.52C41.04 52.8 41.88 51.96 42.6 50.76C43.08 50.04 43.32 49.2 43.44 48.48C44.76 50.16 47.16 51.84 51.24 51.84C57.48 51.84 60.24 47.04 61.08 45.12L61.44 45.24C62.76 45.6 64.2 45.96 65.28 46.32C66.12 46.68 66.24 46.68 66.24 48.96V53.04C66.24 53.4 66 53.88 66 54H62.4V51.6C62.4 51.12 62.04 50.64 61.44 50.64C60.84 50.64 60.48 51 60.48 51.6V65.52C60.48 66 60.84 66.48 61.44 66.48C62.04 66.48 62.4 66 62.4 65.52V55.56H65.28L65.16 65.52C65.16 66 65.52 66.48 66 66.48C66.48 66.48 66.84 66.12 66.96 65.64L67.08 55.44C67.8 54.96 68.16 53.88 68.16 53.04V48.96C68.16 46.32 67.92 45.24 65.88 44.52ZM39.72 21.84C39.72 20.28 39.96 18.84 40.32 17.52C41.28 14.64 43.32 12.24 46.2 10.68C50.04 8.63999 54.36 9.11999 58.2 12.12C59.76 13.32 62.52 15.96 62.52 19.44C62.52 25.92 63.12 32.4 63.72 34.44C64.2 36 64.2 36.12 64.44 36.6L64.56 36.72C64.56 36.84 64.44 37.2 63.72 37.68C62.4 38.76 59.76 39.84 57 39.6C56.88 39.12 56.76 38.64 56.76 38.16C57.6 37.8 58.32 37.32 59.04 36.6C61.2 34.56 62.4 31.2 62.16 27.48C62.04 25.8 61.56 24.48 60.6 23.52C58.92 21.84 57.84 21.84 56.52 21.72C55.68 21.72 54.6 21.6 53.04 21.12C49.08 19.92 47.76 17.76 47.76 17.64C47.52 17.28 47.16 17.16 46.68 17.28C46.32 17.4 45.96 17.76 46.08 18.12C46.08 18.84 45.96 21.24 44.76 21.84C43.2 22.8 41.52 22.56 41.52 22.56C41.04 22.56 40.56 22.92 40.56 23.4C40.56 23.88 40.92 24.36 41.4 24.36C41.52 24.36 43.8 24.6 45.84 23.28C47.04 22.56 47.52 21.24 47.76 20.04C48.72 20.88 50.28 21.96 52.56 22.56C54.36 23.04 55.56 23.16 56.4 23.28C57.6 23.4 58.2 23.4 59.4 24.6C60.24 25.44 60.36 26.52 60.48 27.36C60.6 30.48 59.64 33.36 57.96 35.04C56.52 36.36 54.24 37.2 51.6 37.2C47.64 37.2 46.32 36.6 46.2 36.36C46.08 35.88 45.6 35.16 45.12 34.56C44.64 33.84 44.04 33.12 43.44 32.52V25.8C43.44 25.44 43.32 25.2 42.96 24.96C42.6 24.72 42.36 24.84 42 24.96L39.84 26.28V21.84H39.72ZM41.4 27.72V33.12L40.08 32.28L36.96 30.36L41.4 27.72ZM29.16 27.72L33.6 30.36L29.28 33C29.28 32.88 29.28 32.88 29.28 32.76V27.72H29.16ZM23.64 39.36V41.4C22.2 43.44 20.28 44.4 18 44.4C14.16 44.4 11.04 42 8.52 37.2C9.72 36.84 10.92 36.48 11.76 36.24V36.72C11.76 38.88 15.12 41.28 18 41.28C20.16 41.28 22.56 39.72 23.64 38.16C23.64 38.64 23.64 39 23.64 39.36ZM13.56 36.84V32.4C14.88 33 16.44 33.48 18 33.48C19.56 33.48 21.12 33 22.56 32.4C22.56 33.84 22.68 35.88 22.68 36.72C22.68 37.32 20.4 39.72 18.12 39.72C15.84 39.6 13.56 37.68 13.56 36.84ZM18 31.56C14.04 31.56 10.32 28.08 9.48 26.64C8.76 25.44 8.52 23.16 8.52 22.32C8.52 22.08 8.4 21.84 8.28 21.72C8.16 21.6 7.92 21.6 7.68 21.6C7.2 21.6 6.6 21.6 6.36 21.48C6.24 21 6.24 19.68 6.36 19.32C6.48 19.2 6.84 19.08 7.2 19.08H9.24C9.24 19.08 9.24 19.08 9.36 19.08C9.72 19.08 10.68 19.08 11.4 18.36C11.76 18 12 17.4 12 16.8C12 15.48 12.36 15.48 12.6 15.48C12.72 15.48 12.96 15.48 13.32 15.48C15.12 15.48 18.72 15.6 20.76 15C23.04 14.28 25.44 13.08 25.44 13.08C25.92 12.84 26.04 12.36 25.8 11.88C25.56 11.4 25.08 11.28 24.6 11.52C24.6 11.52 22.32 12.72 20.16 13.32C18.36 13.8 14.76 13.8 13.2 13.8C12.84 13.8 12.6 13.8 12.48 13.8C11.4 13.8 10.08 14.28 10.08 16.92C10.08 17.16 9.96 17.16 9.96 17.16C9.84 17.28 9.36 17.4 9.12 17.4H7.92V12.24C7.92 8.27999 11.88 6.23999 15.48 5.63999C18.72 5.15999 23.28 5.75999 25.92 7.91999C27.24 8.99999 27.96 10.56 27.96 12.24V18.24C27.96 18.72 28.32 19.08 28.8 19.08C29.04 19.08 29.4 19.2 29.64 19.2C29.76 19.68 29.76 20.88 29.64 21.36C29.52 21.6 28.92 21.6 28.44 21.6C28.2 21.6 27.96 21.72 27.84 21.84C27.72 21.96 27.6 22.2 27.6 22.44C27.6 23.28 27.36 25.56 26.64 26.76C25.8 28.08 22.08 31.56 18 31.56ZM24.36 31.32C25.56 30.48 26.64 29.52 27.36 28.68V32.28C26.04 33.36 25.08 34.68 24.48 36C24.48 34.8 24.36 32.4 24.36 31.32ZM40.2 57.84L40.56 57.96C39.72 58.92 38.04 60.36 35.28 60.36C32.52 60.36 30.96 59.04 30.24 57.96L30.6 57.84C32.4 57.48 32.64 56.4 32.64 55.8V54.6C33.36 54.84 34.2 54.84 35.04 54.84C36.12 54.84 37.2 54.6 38.16 54.36V55.8C38.16 56.4 38.4 57.48 40.2 57.84ZM43.32 44.04C42.48 44.04 42.12 44.52 42 45C42 45.12 41.88 45.12 41.88 45.24C41.76 45.6 41.76 45.84 41.76 46.08C41.76 46.8 41.76 48.6 41.04 49.8C39.6 51.96 37.56 53.16 35.04 53.16C32.4 53.16 30.48 52.08 29.04 49.8C28.32 48.6 28.32 46.8 28.32 45.96C28.32 45.48 28.32 43.92 26.76 43.92H25.68C25.56 43.92 25.56 43.92 25.44 43.92V41.64C26.04 41.64 26.76 41.76 27.72 41.76C31.08 41.76 36.48 41.04 41.88 37.56C42.24 37.32 42.36 36.72 42.12 36.36C41.88 36 41.28 35.88 40.92 36.12C34.44 40.44 27.6 40.08 25.44 39.96V39.48C25.44 38.04 26.16 36.36 27.36 34.92C27.36 35.16 27.6 35.4 27.72 35.52C27.84 35.64 27.96 35.64 28.2 35.64C28.32 35.64 28.56 35.64 28.68 35.52L29.28 35.16C29.28 35.16 29.4 35.16 29.4 35.04L35.28 31.44L41.88 35.4C42 35.52 42.24 35.52 42.36 35.52C42.48 35.52 42.72 35.52 42.84 35.4C42.96 35.4 42.96 35.28 43.08 35.28C43.2 35.4 43.32 35.52 43.32 35.64C44.16 36.84 44.64 38.16 44.64 39.36V43.92C44.64 43.92 44.52 43.92 44.4 43.92H43.32V44.04ZM51.24 50.04C46.2 50.04 44.4 47.16 43.92 45.84H44.4C45.6 45.84 46.44 45.12 46.44 44.04V39.48C46.44 39.24 46.44 39.12 46.44 38.88C47.52 39.12 49.08 39.36 51.36 39.36C52.44 39.36 53.64 39.24 54.96 38.88C55.08 39.36 55.2 39.84 55.2 40.44C55.2 40.68 55.2 40.8 55.32 41.04C55.44 41.64 55.68 42.24 55.8 42.48C56.28 43.32 58.08 44.16 59.4 44.64C58.56 46.32 56.28 50.04 51.24 50.04Z" fill="#D5A664"/>
</svg>
