<svg width="72" height="72" viewBox="0 0 72 72" fill="none" xmlns="http://www.w3.org/2000/svg">
<path d="M58.8 0.359985H27.36C26.88 0.359985 26.4 0.719985 26.4 1.31999V4.91999H3.84C3.72 4.91999 3.6 4.91999 3.48 5.03999C3.24 5.03999 3.12 5.27999 3 5.39999C3 5.51999 2.88 5.63999 2.88 5.75999V18C2.88 18.24 3 18.48 3.12 18.6L17.04 32.88V38.64C15.36 40.44 14.28 42.84 14.28 45.6C14.28 51.12 18.84 55.68 24.36 55.68C29.88 55.68 34.44 51.12 34.44 45.6C34.44 42.96 33.36 40.56 31.8 38.76V32.88L36.12 28.32H40.08V47.88C40.08 52.08 35.4 52.2 35.16 52.2C34.68 52.2 34.32 52.56 34.32 53.16V57.36C34.32 57.84 34.68 58.32 35.28 58.32H51.12C51.6 58.32 52.08 57.96 52.08 57.36V53.16C52.08 52.92 51.96 52.68 51.84 52.56C51.72 52.44 51.48 52.32 51.24 52.32C51.24 52.32 48.6 52.32 47.16 50.88C46.44 50.16 46.2 49.32 46.2 48.24V28.44C53.4 27.72 60 18.72 60 13.2V1.31999C59.76 0.839985 59.28 0.359985 58.8 0.359985ZM42.84 6.71999L36.36 13.2H12.48L6.00001 6.71999H42.84ZM34.56 15L24.36 25.08L14.28 15H34.56ZM4.68 17.64V7.91999L23.04 26.28L18 31.32L4.68 17.64ZM18.96 33.48H30V37.32C28.44 36.24 26.52 35.64 24.36 35.64C22.32 35.64 20.4 36.24 18.84 37.32V33.48H18.96ZM32.64 45.6C32.64 50.16 28.92 53.88 24.36 53.88C19.8 53.88 16.08 50.16 16.08 45.6C16.08 41.04 19.8 37.32 24.36 37.32C28.92 37.32 32.64 41.04 32.64 45.6ZM35.28 26.64C35.04 26.76 34.8 26.88 34.8 27.24L30.48 31.68H20.16L24.96 27L44.16 7.91999V17.4L35.28 26.64ZM57.96 13.08C57.96 17.88 51.48 26.64 45 26.64C44.76 26.64 44.52 26.76 44.4 26.88C44.28 27 44.16 27.24 44.16 27.48V48.12C44.16 49.68 44.64 51 45.72 51.96C47.04 53.28 49.08 53.76 50.16 53.88V56.4H36.12V54C38.52 53.64 41.88 52.08 41.88 47.88V27.48C41.88 27 41.52 26.52 40.92 26.52H37.8L45.6 18.36C45.72 18.24 45.84 18 45.84 17.76V5.75999C45.84 5.63999 45.84 5.51999 45.84 5.51999C45.84 5.39999 45.72 5.39999 45.72 5.27999C45.6 5.15999 45.48 5.15999 45.48 5.03999C45.36 5.03999 45.24 4.91999 45.12 4.91999H28.32V2.15999H58.08V13.08H57.96ZM54.84 10.68C55.56 10.68 56.28 10.08 56.28 9.23999C56.28 8.39999 55.68 7.79999 54.84 7.79999C54 7.79999 53.4 8.39999 53.4 9.23999C53.4 10.08 54.12 10.68 54.84 10.68ZM24.36 39.72C21.12 39.72 18.48 42.36 18.48 45.6C18.48 48.84 21.12 51.48 24.36 51.48C27.6 51.48 30.24 48.84 30.24 45.6C30.24 42.36 27.72 39.72 24.36 39.72ZM24.36 49.8C22.08 49.8 20.28 48 20.28 45.72C20.28 43.44 22.08 41.64 24.36 41.64C26.64 41.64 28.44 43.44 28.44 45.72C28.44 48 26.64 49.8 24.36 49.8ZM54.84 14.64C55.56 14.64 56.28 14.04 56.28 13.2C56.28 12.36 55.68 11.76 54.84 11.76C54 11.76 53.4 12.36 53.4 13.2C53.4 14.04 54.12 14.64 54.84 14.64ZM54.84 6.71999C55.56 6.71999 56.28 6.11999 56.28 5.27999C56.28 4.43999 55.68 3.83999 54.84 3.83999C54 3.83999 53.4 4.43999 53.4 5.27999C53.4 6.11999 54.12 6.71999 54.84 6.71999Z" fill="#D5A664"/>
</svg>
