<svg width="72" height="72" viewBox="0 0 72 72" fill="none" xmlns="http://www.w3.org/2000/svg">
<path d="M60.6 9.72C61.56 9.72 62.28 9 62.28 8.04C62.28 7.08 61.56 6.36 60.6 6.36C59.64 6.36 58.8 7.08 58.8 8.04C58.8 9 59.64 9.72 60.6 9.72ZM60.6 38.28C61.56 38.28 62.28 37.56 62.28 36.6C62.28 35.64 61.56 34.8 60.6 34.8C59.64 34.8 58.8 35.64 58.8 36.6C58.8 37.56 59.64 38.28 60.6 38.28ZM5.28001 34.8C4.32001 34.8 3.60001 35.64 3.60001 36.6C3.60001 37.56 4.32001 38.28 5.28001 38.28C6.24001 38.28 6.96001 37.56 6.96001 36.6C6.96001 35.64 6.24001 34.8 5.28001 34.8ZM5.28001 6.36C4.32001 6.36 3.60001 7.08 3.60001 8.04C3.60001 9 4.32001 9.72 5.28001 9.72C6.24001 9.72 6.96001 9 6.96001 8.04C7.08001 7.08 6.24001 6.36 5.28001 6.36ZM24.12 13.44C24.12 12.96 23.76 12.48 23.16 12.48H15C14.52 12.48 14.04 12.84 14.04 13.44V16.8C14.04 17.28 14.4 17.76 15 17.76C15.6 17.76 15.96 17.4 15.96 16.8V14.4H23.28C23.64 14.28 24.12 13.92 24.12 13.44ZM64.68 3H1.20001C0.720006 3 0.240005 3.36 0.240005 3.96V40.8C0.240005 41.28 0.600006 41.76 1.20001 41.76H17.28C17.76 41.76 18.24 41.4 18.24 40.8C18.24 40.2 17.88 39.84 17.28 39.84H2.16001V4.8H63.84V39.84H48.6C48.12 39.84 47.64 40.2 47.64 40.8C47.64 41.4 48 41.76 48.6 41.76H64.68C65.16 41.76 65.64 41.4 65.64 40.8V3.96C65.64 3.36 65.16 3 64.68 3ZM44.76 33.72H21.24C20.76 33.72 20.28 34.08 20.28 34.68V40.68C20.28 41.16 20.64 41.64 21.24 41.64H21.6V61.68H21.12C20.64 61.68 20.16 62.04 20.16 62.64C20.16 63.24 20.52 63.6 21.12 63.6H22.44C22.92 63.6 23.4 63.24 23.4 62.64V60.96H24.84V62.64C24.84 63.12 25.2 63.6 25.8 63.6C26.4 63.6 26.76 63.24 26.76 62.64V60.96H29.76V62.64C29.76 63.12 30.12 63.6 30.72 63.6C31.32 63.6 31.68 63.24 31.68 62.64V60.96H34.68V62.64C34.68 63.12 35.04 63.6 35.64 63.6C36.24 63.6 36.6 63.24 36.6 62.64V60.96H39.6V62.64C39.6 63.12 39.96 63.6 40.56 63.6C41.16 63.6 41.52 63.24 41.52 62.64V60.96H42.96V62.64C42.96 63.12 43.32 63.6 43.92 63.6H45.24C45.72 63.6 46.2 63.24 46.2 62.64C46.2 62.04 45.84 61.68 45.24 61.68H44.76V41.64H45.24C45.72 41.64 46.2 41.28 46.2 40.68V34.68C45.6 34.2 45.24 33.72 44.76 33.72ZM24.84 59.04H23.4V56.04H24.84V59.04ZM24.84 54.24H23.4V51.24H24.84V54.24ZM24.84 49.44H23.4V46.44H24.84V49.44ZM24.84 44.64H23.4V41.64H24.84V44.64ZM29.64 59.04H26.64V56.04H29.64V59.04ZM29.64 54.24H26.64V51.24H29.64V54.24ZM29.64 49.44H26.64V46.44H29.64V49.44ZM29.64 44.64H26.64V41.64H29.64V44.64ZM34.44 59.04H31.44V56.04H34.44V59.04ZM34.44 54.24H31.44V51.24H34.44V54.24ZM34.44 49.44H31.44V46.44H34.44V49.44ZM34.44 44.64H31.44V41.64H34.44V44.64ZM39.24 59.04H36.24V56.04H39.24V59.04ZM39.24 54.24H36.24V51.24H39.24V54.24ZM39.24 49.44H36.24V46.44H39.24V49.44ZM39.24 44.64H36.24V41.64H39.24V44.64ZM42.48 59.04H41.04V56.04H42.48V59.04ZM42.48 54.24H41.04V51.24H42.48V54.24ZM42.48 49.44H41.04V46.44H42.48V49.44ZM42.48 44.64H41.04V41.64H42.48V44.64ZM43.8 36.96H42.36C41.88 36.96 41.4 37.32 41.4 37.92C41.4 38.52 41.76 38.88 42.36 38.88H43.8V39.96H22.08V38.88H23.52C24 38.88 24.48 38.52 24.48 37.92C24.48 37.32 24.12 36.96 23.52 36.96H22.08V35.64H43.8V36.96ZM28.68 14.28C29.16 14.28 29.64 13.92 29.64 13.32C29.64 12.72 29.28 12.36 28.68 12.36H25.8C25.32 12.36 24.84 12.72 24.84 13.32C24.84 13.92 25.2 14.28 25.8 14.28H28.68ZM54.36 35.52C54.84 35.52 55.32 35.16 55.32 34.56V9.96C55.32 9.48 54.96 9 54.36 9H11.64C11.16 9 10.68 9.36 10.68 9.96V34.68C10.68 35.16 11.04 35.64 11.64 35.64H17.64C18.12 35.64 18.6 35.28 18.6 34.68C18.6 34.08 18.24 33.72 17.64 33.72H12.48V10.8H53.4V33.72H48.24C47.76 33.72 47.28 34.08 47.28 34.68C47.28 35.28 47.64 35.64 48.24 35.64H54.36V35.52Z" fill="#D5A664"/>
</svg>
