<svg width="40" height="40" viewBox="0 0 40 40" fill="none" xmlns="http://www.w3.org/2000/svg">
<g clip-path="url(#clip0_5_434)">
<path d="M32.8454 39.3179C24.309 40.2287 15.7 40.2287 7.16358 39.3179C5.50589 39.1429 3.95829 38.4049 2.77879 37.2271C1.59928 36.0492 0.859142 34.5027 0.681762 32.8452C-0.228963 24.3088 -0.228963 15.6998 0.681762 7.1634C0.856816 5.50571 1.59478 3.95811 2.77263 2.7786C3.95049 1.5991 5.49705 0.858959 7.15449 0.681579C15.6909 -0.229146 24.2999 -0.229146 32.8363 0.681579C34.494 0.856632 36.0416 1.5946 37.2211 2.77245C38.4006 3.9503 39.1407 5.49687 39.3181 7.15431C40.2289 15.6907 40.2289 24.2997 39.3181 32.8361C39.1431 34.4938 38.4051 36.0414 37.2273 37.2209C36.0494 38.4004 34.5028 39.1406 32.8454 39.3179Z" fill="#6F3FAA"/>
<path d="M31.5523 13.966V13.9364C31.2841 12.8501 30.5841 11.7273 29.6659 10.7819C28.5932 9.67278 27.2273 8.80233 25.9227 8.52051H25.8955C22.0051 7.77506 18.0086 7.77506 14.1182 8.52051H14.0909C11.6682 9.04551 9.03865 11.5773 8.45228 13.9364V13.966C7.73185 17.2366 7.73185 20.6249 8.45228 23.8955V23.9228C8.87046 25.6046 10.325 27.3728 12.0023 28.441C12.55 28.7979 13.1463 29.0742 13.7727 29.2614V31.8932C13.7736 32.1036 13.8371 32.3089 13.9551 32.483C14.0731 32.6571 14.2403 32.7921 14.4353 32.8709C14.6303 32.9496 14.8444 32.9685 15.0502 32.9251C15.256 32.8817 15.4442 32.7781 15.5909 32.6273L18.2591 29.8546C18.8364 29.8864 19.4182 29.9046 19.9955 29.9046C21.9716 29.904 23.9432 29.7168 25.8841 29.3455H25.9114C28.3273 28.8182 30.9591 26.2864 31.5409 23.9273V23.9001C32.2658 20.6288 32.2696 17.2389 31.5523 13.966ZM29.4409 23.4091C29.05 24.9478 27.0546 26.8637 25.4659 27.216C23.4025 27.6112 21.3025 27.7827 19.2023 27.7273C19.1818 27.7261 19.1614 27.7295 19.1425 27.7374C19.1235 27.7453 19.1067 27.7574 19.0932 27.7728L17.1455 29.7728L15.0727 31.8978C15.0396 31.9328 14.9967 31.9571 14.9495 31.9675C14.9024 31.9779 14.8533 31.9739 14.8085 31.956C14.7637 31.9381 14.7253 31.9072 14.6982 31.8672C14.6712 31.8273 14.6568 31.7801 14.6568 31.7319V27.3682C14.6569 27.3331 14.6446 27.2991 14.6222 27.2722C14.5998 27.2452 14.5686 27.2269 14.5341 27.2205C14.2027 27.1418 13.8833 27.0196 13.5841 26.8569C12.2341 26.1364 10.8727 24.6591 10.5591 23.4091C9.90946 20.4527 9.90946 17.3905 10.5591 14.4341C10.9477 12.9023 12.9546 10.991 14.5318 10.6364C18.1438 9.94532 21.854 9.94532 25.4659 10.6364C26.3409 10.8319 27.3409 11.4978 28.1227 12.316C28.7659 12.9819 29.2591 13.7501 29.4409 14.441C30.0896 17.3952 30.0896 20.4549 29.4409 23.4091Z" fill="white"/>
<path d="M25.5227 23.6366C25.2275 24.3105 24.7198 24.8692 24.0773 25.2275C23.8757 25.3131 23.6664 25.3793 23.4523 25.4253C23.2091 25.3525 22.9773 25.3025 22.7705 25.2139C21.0476 24.5435 19.4438 23.6004 18.0205 22.4207C17.5977 22.0602 17.2005 21.6706 16.8318 21.2548C15.9215 20.2064 15.157 19.0398 14.5591 17.7866C14.2682 17.1934 14.0227 16.5798 13.7727 15.9684C13.5455 15.4116 13.8818 14.8321 14.2273 14.4162C14.5654 14.0305 14.9814 13.7206 15.4477 13.5071C15.6119 13.4246 15.7997 13.4022 15.9786 13.4437C16.1575 13.4852 16.3163 13.588 16.4273 13.7344C17.008 14.3868 17.5198 15.0973 17.9546 15.8548C18.0915 16.0751 18.1384 16.3396 18.0855 16.5935C18.0326 16.8474 17.884 17.0712 17.6705 17.2184C17.5568 17.298 17.4432 17.3889 17.3455 17.4775C17.2491 17.5489 17.166 17.6366 17.1 17.7366C17.043 17.8303 17.0085 17.9358 16.999 18.045C16.9895 18.1542 17.0054 18.2641 17.0455 18.3662C17.4841 19.573 18.15 20.5798 19.1455 21.2866C19.4824 21.5248 19.8453 21.7238 20.2273 21.8798C20.4767 22.0155 20.757 22.0844 21.0409 22.0798C21.5364 22.0207 21.7 21.473 22.0455 21.1912C22.204 21.0613 22.4003 20.9861 22.605 20.9767C22.8097 20.9673 23.012 21.0242 23.1818 21.1389C23.55 21.3662 23.9046 21.623 24.2591 21.873C24.6098 22.1123 24.9474 22.3703 25.2705 22.6457C25.4216 22.7555 25.5295 22.9146 25.5756 23.0956C25.6216 23.2766 25.603 23.468 25.5227 23.6366Z" fill="white"/>
<path d="M20.6523 12.7456H20.3614C20.4545 12.7413 20.5523 12.7456 20.6523 12.7456Z" fill="white"/>
<path d="M25.6818 19.557C25.4546 19.557 25.3432 19.3638 25.3273 19.1525C25.2977 18.7365 25.275 18.3184 25.2182 17.9047C25.12 17.2068 24.8769 16.5372 24.5046 15.9388C24.1219 15.3154 23.6126 14.7793 23.0097 14.3651C22.4068 13.9509 21.7237 13.6679 21.0046 13.5343C20.6773 13.4752 20.3432 13.4615 20.0136 13.4275C19.8046 13.4047 19.5296 13.3911 19.4841 13.132C19.4773 13.0817 19.4813 13.0305 19.4959 12.9818C19.5105 12.9332 19.5353 12.8882 19.5686 12.8499C19.602 12.8117 19.6431 12.7809 19.6893 12.7598C19.7354 12.7387 19.7856 12.7276 19.8364 12.7275C19.8909 12.7243 19.9455 12.7243 20 12.7275C20.9934 12.7359 21.9694 12.9891 22.8416 13.4649C23.7137 13.9406 24.4551 14.624 25 15.4547C25.4302 16.1243 25.7223 16.873 25.8591 17.657C25.9455 18.1479 25.9773 18.6525 26.0159 19.1525C26.0237 19.2015 26.0209 19.2515 26.0079 19.2994C25.9948 19.3473 25.9717 19.3918 25.9401 19.4301C25.9085 19.4683 25.8691 19.4994 25.8246 19.5213C25.7801 19.5432 25.7314 19.5554 25.6818 19.557Z" fill="white"/>
<path d="M24.4523 18.4955C24.451 18.563 24.4418 18.6302 24.425 18.6955C24.4051 18.7612 24.3655 18.8192 24.3116 18.8616C24.2576 18.904 24.1919 18.9288 24.1233 18.9325C24.0548 18.9362 23.9868 18.9188 23.9285 18.8825C23.8702 18.8462 23.8246 18.7928 23.7977 18.7296C23.7727 18.6379 23.7612 18.5429 23.7636 18.4478C23.7689 17.9395 23.6683 17.4356 23.4682 16.9683C23.4227 16.8683 23.3727 16.766 23.3159 16.6683C22.9906 16.1075 22.5077 15.6547 21.9273 15.366C21.5771 15.2007 21.2052 15.0859 20.8227 15.0251C20.6545 14.9978 20.4864 14.9819 20.3182 14.9592C20.2744 14.957 20.2315 14.9458 20.1923 14.9264C20.153 14.907 20.1181 14.8797 20.0897 14.8463C20.0614 14.8128 20.0402 14.7739 20.0275 14.732C20.0148 14.69 20.0109 14.6459 20.0159 14.6024C20.0159 14.5578 20.0254 14.5138 20.0436 14.4732C20.0619 14.4325 20.0885 14.3962 20.1218 14.3666C20.155 14.337 20.1942 14.3147 20.2366 14.3013C20.2791 14.2879 20.3239 14.2836 20.3682 14.2887C21.0355 14.3145 21.6893 14.4851 22.2841 14.7887C23.0104 15.1542 23.603 15.7396 23.9773 16.4614C24.1881 16.8829 24.3293 17.3358 24.3955 17.8024C24.4077 17.8632 24.4168 17.9247 24.4227 17.9864C24.4341 18.1228 24.4386 18.2592 24.45 18.4274C24.45 18.4433 24.4523 18.4637 24.4523 18.4955Z" fill="white"/>
<path d="M22.8955 18.1817C22.8826 18.2393 22.8528 18.2917 22.8098 18.3322C22.7669 18.3727 22.7128 18.3995 22.6545 18.4089H22.6045C22.5301 18.4138 22.4561 18.3942 22.3937 18.3532C22.3314 18.3122 22.2841 18.2519 22.2591 18.1817C22.245 18.1444 22.2358 18.1054 22.2318 18.0657C22.2199 17.9128 22.1971 17.7609 22.1636 17.6112C22.0961 17.3081 21.9239 17.0385 21.6773 16.8498C21.5581 16.7642 21.4251 16.6997 21.2841 16.6589C21.1045 16.6067 20.9159 16.6203 20.7386 16.5771C20.651 16.5616 20.5731 16.512 20.522 16.4391C20.4709 16.3663 20.4507 16.2762 20.4659 16.1885C20.4828 16.1045 20.5298 16.0295 20.598 15.9777C20.6661 15.9258 20.7509 15.9005 20.8364 15.9067C21.8773 15.9817 22.6545 16.4817 22.8545 17.5976C22.8751 17.7012 22.8895 17.8059 22.8977 17.9112C22.9105 18.001 22.9097 18.0921 22.8955 18.1817Z" fill="white"/>
</g>
<defs>
<clipPath id="clip0_5_434">
<rect width="40" height="40" fill="white"/>
</clipPath>
</defs>
</svg>
