<svg width="40" height="40" viewBox="0 0 40 40" fill="none" xmlns="http://www.w3.org/2000/svg">
<g clip-path="url(#clip0_5_423)">
<path d="M14.1782 0.990234H25.8416C36.4951 0.990234 39.0099 3.52489 39.0099 14.1784V25.8417C39.0099 36.4952 36.4753 39.01 25.8218 39.01H14.1584C3.50496 39.01 0.990112 36.4754 0.990112 25.8219V14.1586C0.990112 3.52489 3.52477 0.990234 14.1782 0.990234Z" fill="#5181B8"/>
<mask id="mask0_5_423" style="mask-type:luminance" maskUnits="userSpaceOnUse" x="0" y="0" width="40" height="40">
<path d="M14.1782 0.990234H25.8416C36.4951 0.990234 39.0099 3.52489 39.0099 14.1784V25.8417C39.0099 36.4952 36.4753 39.01 25.8218 39.01H14.1584C3.50496 39.01 0.990112 36.4754 0.990112 25.8219V14.1586C0.990112 3.52489 3.52477 0.990234 14.1782 0.990234Z" fill="white"/>
</mask>
<g mask="url(#mask0_5_423)">
<path d="M0 0H40V40H0V0Z" fill="#5181B8"/>
</g>
<path fill-rule="evenodd" clip-rule="evenodd" d="M32.1188 14.0792C32.297 13.4852 32.1188 13.0693 31.2871 13.0693H28.5148C27.802 13.0693 27.4851 13.4456 27.3069 13.8614C27.3069 13.8614 25.901 17.307 23.901 19.5248C23.2475 20.1782 22.9703 20.3763 22.6139 20.3763C22.4356 20.3763 22.1782 20.1782 22.1782 19.5842V14.0792C22.1782 13.3664 21.9802 13.0693 21.3861 13.0693H17.0297C16.5941 13.0693 16.3168 13.406 16.3168 13.703C16.3168 14.3763 17.3069 14.5347 17.4257 16.3961V20.4753C17.4257 21.3664 17.2673 21.5248 16.9109 21.5248C15.9802 21.5248 13.6832 18.0792 12.3366 14.1188C12.0594 13.3862 11.802 13.0693 11.0891 13.0693H8.31683C7.52475 13.0693 7.36633 13.4456 7.36633 13.8614C7.36633 14.5941 8.29703 18.2377 11.7426 23.0495C14.0396 26.3367 17.2673 28.1188 20.198 28.1188C21.9604 28.1188 22.1782 27.7228 22.1782 27.0495V24.5545C22.1782 23.7624 22.3366 23.604 22.9109 23.604C23.3267 23.604 24.0198 23.802 25.6634 25.3862C27.5446 27.2674 27.8614 28.1188 28.9109 28.1188H31.6832C32.4752 28.1188 32.8713 27.7228 32.6337 26.9505C32.3762 26.1782 31.4851 25.0495 30.297 23.703C29.6436 22.9307 28.6733 22.1188 28.396 21.703C27.9802 21.1683 28.099 20.9307 28.396 20.4753C28.396 20.4555 31.7822 15.703 32.1188 14.0792Z" fill="white"/>
</g>
<defs>
<clipPath id="clip0_5_423">
<rect width="40" height="40" fill="white"/>
</clipPath>
</defs>
</svg>
