<svg width="29" height="29" viewBox="0 0 29 29" fill="none" xmlns="http://www.w3.org/2000/svg">
<path d="M7.26692 9.67407C7.40499 8.58207 8.82418 7.09792 9.95048 7.2626L9.94868 7.2608C11.0448 7.4691 11.9125 9.35565 12.4017 10.204C12.7484 10.8194 12.5233 11.443 12.1999 11.7062C11.7637 12.0578 11.0816 12.5429 11.2247 13.0299C11.4792 13.8958 14.5 16.9167 15.9858 17.7754C16.5481 18.1005 16.9559 17.2432 17.3042 16.8039C17.5572 16.4661 18.1813 16.2642 18.7954 16.5977C19.7125 17.1317 20.5765 17.7525 21.3754 18.4512C21.7744 18.7847 21.8681 19.2776 21.5916 19.7985C21.1046 20.716 19.6962 21.9259 18.6738 21.68C16.8881 21.2507 9.66667 18.4512 7.34707 10.3409C7.21661 9.95725 7.24946 9.8122 7.26692 9.67407Z" fill="white"/>
<path fill-rule="evenodd" clip-rule="evenodd" d="M14.5 27.7917C13.0215 27.7917 12.2034 27.633 10.875 27.1875L8.33077 28.4596C6.72392 29.2631 4.83333 28.0946 4.83333 26.2981V23.5625C2.23125 21.1362 1.20833 18.3385 1.20833 14.5C1.20833 7.15923 7.15922 1.20834 14.5 1.20834C21.8407 1.20834 27.7917 7.15923 27.7917 14.5C27.7917 21.8408 21.8407 27.7917 14.5 27.7917ZM7.25 22.5116L6.48144 21.795C4.4598 19.91 3.625 17.8025 3.625 14.5C3.625 8.49392 8.49391 3.62501 14.5 3.62501C20.5061 3.62501 25.375 8.49392 25.375 14.5C25.375 20.5062 20.5061 25.375 14.5 25.375C13.3089 25.375 12.7503 25.2675 11.6434 24.8963L10.6919 24.5771L7.25 26.2981V22.5116Z" fill="white"/>
</svg>
